<mxfile host="app.diagrams.net" modified="2022-01-23T08:20:08.018Z" agent="5.0 (Macintosh; Intel Mac OS X 10_15_7) AppleWebKit/537.36 (KHTML, like Gecko) Chrome/97.0.4692.71 Safari/537.36" etag="lzc2OvAsnoQ60C8wi8BW" version="16.2.2" type="github" pages="2">
  <diagram id="I3_SwhToVylOWt1q2Nj9" name="Page-1">
    <mxGraphModel dx="996" dy="-610" grid="1" gridSize="10" guides="1" tooltips="1" connect="1" arrows="1" fold="1" page="1" pageScale="1" pageWidth="827" pageHeight="1169" math="0" shadow="0">
      <root>
        <mxCell id="0" />
        <mxCell id="1" parent="0" />
        <mxCell id="eHjLzsZHzsq28qdxzHwp-1" value="" style="rounded=1;whiteSpace=wrap;html=1;fillColor=#eff1f3;strokeColor=none;shadow=0;glass=0;comic=0;gradientColor=none;fontFamily=Courier New;fontColor=#FFFFFF;" vertex="1" parent="1">
          <mxGeometry x="700" y="1600" width="390" height="250" as="geometry" />
        </mxCell>
        <mxCell id="eHjLzsZHzsq28qdxzHwp-2" value="&lt;font color=&quot;#ffffff&quot; face=&quot;Courier New&quot;&gt;animals&lt;/font&gt;" style="rounded=1;whiteSpace=wrap;html=1;fillColor=#79d9ce;strokeColor=none;shadow=1;glass=0;comic=0;gradientColor=none;" vertex="1" parent="1">
          <mxGeometry x="710" y="1720" width="90" height="30" as="geometry" />
        </mxCell>
        <mxCell id="eHjLzsZHzsq28qdxzHwp-3" value="" style="endArrow=classic;html=1;exitX=1;exitY=0.5;exitDx=0;exitDy=0;strokeWidth=2;dashed=1;strokeColor=#696773;entryX=0;entryY=0.5;entryDx=0;entryDy=0;" edge="1" parent="1" source="eHjLzsZHzsq28qdxzHwp-2" target="eHjLzsZHzsq28qdxzHwp-6">
          <mxGeometry width="50" height="50" relative="1" as="geometry">
            <mxPoint x="850" y="1780" as="sourcePoint" />
            <mxPoint x="880" y="1735" as="targetPoint" />
          </mxGeometry>
        </mxCell>
        <mxCell id="eHjLzsZHzsq28qdxzHwp-4" value="&lt;b style=&quot;color: rgb(105 , 103 , 115)&quot;&gt;category2&lt;/b&gt;" style="edgeLabel;html=1;align=center;verticalAlign=middle;resizable=0;points=[];fontFamily=Courier New;fontColor=#FFFFFF;labelBackgroundColor=none;" vertex="1" connectable="0" parent="eHjLzsZHzsq28qdxzHwp-3">
          <mxGeometry x="0.0311" y="2" relative="1" as="geometry">
            <mxPoint x="7" y="-13" as="offset" />
          </mxGeometry>
        </mxCell>
        <mxCell id="eHjLzsZHzsq28qdxzHwp-5" value="cat" style="rounded=1;whiteSpace=wrap;html=1;fillColor=#f19a97;strokeColor=none;shadow=1;glass=0;comic=0;gradientColor=none;fontFamily=Courier New;fontColor=#FFFFFF;" vertex="1" parent="1">
          <mxGeometry x="980" y="1670" width="90" height="30" as="geometry" />
        </mxCell>
        <mxCell id="eHjLzsZHzsq28qdxzHwp-6" value="dog" style="rounded=1;whiteSpace=wrap;html=1;fillColor=#f19a97;strokeColor=none;shadow=1;glass=0;comic=0;gradientColor=none;fontFamily=Courier New;fontColor=#FFFFFF;" vertex="1" parent="1">
          <mxGeometry x="980" y="1720" width="90" height="30" as="geometry" />
        </mxCell>
        <mxCell id="eHjLzsZHzsq28qdxzHwp-7" value="pig" style="rounded=1;whiteSpace=wrap;html=1;fillColor=#f19a97;strokeColor=none;shadow=1;glass=0;comic=0;gradientColor=none;fontFamily=Courier New;fontColor=#FFFFFF;" vertex="1" parent="1">
          <mxGeometry x="980" y="1770" width="90" height="30" as="geometry" />
        </mxCell>
        <mxCell id="eHjLzsZHzsq28qdxzHwp-8" value="" style="endArrow=classic;html=1;exitX=1;exitY=0.25;exitDx=0;exitDy=0;strokeWidth=2;dashed=1;strokeColor=#696773;entryX=0;entryY=0.5;entryDx=0;entryDy=0;" edge="1" parent="1" source="eHjLzsZHzsq28qdxzHwp-2" target="eHjLzsZHzsq28qdxzHwp-5">
          <mxGeometry width="50" height="50" relative="1" as="geometry">
            <mxPoint x="850" y="1780" as="sourcePoint" />
            <mxPoint x="880" y="1735" as="targetPoint" />
            <Array as="points">
              <mxPoint x="840" y="1728" />
              <mxPoint x="840" y="1685" />
            </Array>
          </mxGeometry>
        </mxCell>
        <mxCell id="eHjLzsZHzsq28qdxzHwp-9" value="&lt;font color=&quot;#696773&quot;&gt;&lt;b&gt;category1&lt;/b&gt;&lt;/font&gt;" style="edgeLabel;html=1;align=center;verticalAlign=middle;resizable=0;points=[];fontFamily=Courier New;fontColor=#FFFFFF;labelBackgroundColor=none;" vertex="1" connectable="0" parent="eHjLzsZHzsq28qdxzHwp-8">
          <mxGeometry x="0.2736" y="1" relative="1" as="geometry">
            <mxPoint y="-14" as="offset" />
          </mxGeometry>
        </mxCell>
        <mxCell id="eHjLzsZHzsq28qdxzHwp-10" value="" style="endArrow=classic;html=1;exitX=1;exitY=0.75;exitDx=0;exitDy=0;strokeWidth=2;dashed=1;strokeColor=#696773;entryX=0;entryY=0.5;entryDx=0;entryDy=0;" edge="1" parent="1" source="eHjLzsZHzsq28qdxzHwp-2" target="eHjLzsZHzsq28qdxzHwp-7">
          <mxGeometry width="50" height="50" relative="1" as="geometry">
            <mxPoint x="850" y="1780" as="sourcePoint" />
            <mxPoint x="880" y="1735" as="targetPoint" />
            <Array as="points">
              <mxPoint x="840" y="1743" />
              <mxPoint x="840" y="1785" />
            </Array>
          </mxGeometry>
        </mxCell>
        <mxCell id="eHjLzsZHzsq28qdxzHwp-11" value="&lt;b style=&quot;color: rgb(105 , 103 , 115)&quot;&gt;category3&lt;/b&gt;" style="edgeLabel;html=1;align=center;verticalAlign=middle;resizable=0;points=[];fontFamily=Courier New;fontColor=#FFFFFF;labelBackgroundColor=none;" vertex="1" connectable="0" parent="eHjLzsZHzsq28qdxzHwp-10">
          <mxGeometry x="0.1604" y="3" relative="1" as="geometry">
            <mxPoint x="13" y="-12" as="offset" />
          </mxGeometry>
        </mxCell>
        <mxCell id="eHjLzsZHzsq28qdxzHwp-12" value="color1&lt;br&gt;#77AAC2" style="rounded=1;whiteSpace=wrap;html=1;fillColor=#77aac2;strokeColor=none;shadow=1;glass=0;comic=0;gradientColor=none;fontFamily=Courier New;fontColor=#FFFFFF;" vertex="1" parent="1">
          <mxGeometry x="1110" y="1590" width="90" height="30" as="geometry" />
        </mxCell>
        <mxCell id="eHjLzsZHzsq28qdxzHwp-13" value="color2&lt;br&gt;#79D9CE" style="rounded=1;whiteSpace=wrap;html=1;fillColor=#79d9ce;strokeColor=none;shadow=1;glass=0;comic=0;gradientColor=none;fontFamily=Courier New;fontColor=#FFFFFF;" vertex="1" parent="1">
          <mxGeometry x="1110" y="1640" width="90" height="30" as="geometry" />
        </mxCell>
        <mxCell id="eHjLzsZHzsq28qdxzHwp-14" value="color3&lt;br&gt;#FCD765" style="rounded=1;whiteSpace=wrap;html=1;fillColor=#fcd765;strokeColor=none;shadow=1;glass=0;comic=0;gradientColor=none;fontFamily=Courier New;fontColor=#FFFFFF;" vertex="1" parent="1">
          <mxGeometry x="1110" y="1690" width="90" height="30" as="geometry" />
        </mxCell>
        <mxCell id="eHjLzsZHzsq28qdxzHwp-15" value="line&lt;br&gt;#696773" style="rounded=1;whiteSpace=wrap;html=1;fillColor=#696773;strokeColor=none;shadow=1;glass=0;comic=0;gradientColor=none;fontFamily=Courier New;fontColor=#FFFFFF;" vertex="1" parent="1">
          <mxGeometry x="1110" y="1790" width="90" height="30" as="geometry" />
        </mxCell>
        <mxCell id="eHjLzsZHzsq28qdxzHwp-16" value="color4&lt;br&gt;#F19A97" style="rounded=1;whiteSpace=wrap;html=1;fillColor=#f19a97;strokeColor=none;shadow=1;glass=0;comic=0;gradientColor=none;fontFamily=Courier New;fontColor=#FFFFFF;" vertex="1" parent="1">
          <mxGeometry x="1110" y="1740" width="90" height="30" as="geometry" />
        </mxCell>
        <mxCell id="eHjLzsZHzsq28qdxzHwp-17" value="background&lt;br&gt;#EFF1F3" style="rounded=1;whiteSpace=wrap;html=1;fillColor=#eff1f3;strokeColor=none;shadow=1;glass=0;comic=0;gradientColor=none;fontFamily=Courier New;fontColor=#FFFFFF;" vertex="1" parent="1">
          <mxGeometry x="1110" y="1840" width="90" height="30" as="geometry" />
        </mxCell>
        <mxCell id="eHjLzsZHzsq28qdxzHwp-18" value="&lt;font face=&quot;Comic Sans MS&quot; style=&quot;font-size: 17px&quot;&gt;&lt;font color=&quot;#696773&quot; style=&quot;font-size: 17px&quot;&gt;Title Font&lt;br&gt;Comic Sans MS&lt;/font&gt;&lt;br&gt;&lt;/font&gt;" style="text;html=1;strokeColor=none;fillColor=none;align=center;verticalAlign=middle;whiteSpace=wrap;rounded=0;" vertex="1" parent="1">
          <mxGeometry x="840" y="1620" width="150" height="20" as="geometry" />
        </mxCell>
        <mxCell id="eHjLzsZHzsq28qdxzHwp-19" value="" style="rounded=1;whiteSpace=wrap;html=1;strokeColor=none;shadow=0;glass=0;comic=0;gradientColor=none;fontFamily=Courier New;fontColor=#FFFFFF;fillColor=#f4f1de;" vertex="1" parent="1">
          <mxGeometry x="680" y="1977" width="561" height="293" as="geometry" />
        </mxCell>
        <mxCell id="eHjLzsZHzsq28qdxzHwp-20" value="&lt;font color=&quot;#ffffff&quot; face=&quot;Courier New&quot;&gt;animals&lt;/font&gt;" style="rounded=1;whiteSpace=wrap;html=1;strokeColor=none;shadow=1;glass=0;comic=0;gradientColor=none;fillColor=#81b29a;" vertex="1" parent="1">
          <mxGeometry x="710" y="2090" width="90" height="30" as="geometry" />
        </mxCell>
        <mxCell id="eHjLzsZHzsq28qdxzHwp-21" value="" style="endArrow=classic;html=1;exitX=1;exitY=0.5;exitDx=0;exitDy=0;strokeWidth=2;dashed=1;strokeColor=#696773;entryX=0;entryY=0.5;entryDx=0;entryDy=0;" edge="1" parent="1" source="eHjLzsZHzsq28qdxzHwp-20" target="eHjLzsZHzsq28qdxzHwp-24">
          <mxGeometry width="50" height="50" relative="1" as="geometry">
            <mxPoint x="850" y="2150" as="sourcePoint" />
            <mxPoint x="880" y="2105" as="targetPoint" />
          </mxGeometry>
        </mxCell>
        <mxCell id="eHjLzsZHzsq28qdxzHwp-22" value="&lt;b style=&quot;color: rgb(105 , 103 , 115)&quot;&gt;category2&lt;/b&gt;" style="edgeLabel;html=1;align=center;verticalAlign=middle;resizable=0;points=[];fontFamily=Courier New;fontColor=#FFFFFF;labelBackgroundColor=none;" vertex="1" connectable="0" parent="eHjLzsZHzsq28qdxzHwp-21">
          <mxGeometry x="0.0311" y="2" relative="1" as="geometry">
            <mxPoint x="7" y="-13" as="offset" />
          </mxGeometry>
        </mxCell>
        <mxCell id="eHjLzsZHzsq28qdxzHwp-23" value="cat" style="rounded=1;whiteSpace=wrap;html=1;strokeColor=none;shadow=1;glass=0;comic=0;gradientColor=none;fontFamily=Courier New;fontColor=#FFFFFF;fillColor=#e07a5f;" vertex="1" parent="1">
          <mxGeometry x="980" y="2040" width="90" height="30" as="geometry" />
        </mxCell>
        <mxCell id="eHjLzsZHzsq28qdxzHwp-24" value="dog" style="rounded=1;whiteSpace=wrap;html=1;strokeColor=none;shadow=1;glass=0;comic=0;gradientColor=none;fontFamily=Courier New;fontColor=#FFFFFF;fillColor=#e07a5f;" vertex="1" parent="1">
          <mxGeometry x="980" y="2090" width="90" height="30" as="geometry" />
        </mxCell>
        <mxCell id="eHjLzsZHzsq28qdxzHwp-25" value="pig" style="rounded=1;whiteSpace=wrap;html=1;strokeColor=none;shadow=1;glass=0;comic=0;gradientColor=none;fontFamily=Courier New;fontColor=#FFFFFF;fillColor=#e07a5f;" vertex="1" parent="1">
          <mxGeometry x="980" y="2140" width="90" height="30" as="geometry" />
        </mxCell>
        <mxCell id="eHjLzsZHzsq28qdxzHwp-26" value="" style="endArrow=classic;html=1;exitX=1;exitY=0.25;exitDx=0;exitDy=0;strokeWidth=2;dashed=1;strokeColor=#696773;entryX=0;entryY=0.5;entryDx=0;entryDy=0;" edge="1" parent="1" source="eHjLzsZHzsq28qdxzHwp-20" target="eHjLzsZHzsq28qdxzHwp-23">
          <mxGeometry width="50" height="50" relative="1" as="geometry">
            <mxPoint x="850" y="2150" as="sourcePoint" />
            <mxPoint x="880" y="2105" as="targetPoint" />
            <Array as="points">
              <mxPoint x="840" y="2098" />
              <mxPoint x="840" y="2055" />
            </Array>
          </mxGeometry>
        </mxCell>
        <mxCell id="eHjLzsZHzsq28qdxzHwp-27" value="&lt;font color=&quot;#696773&quot;&gt;&lt;b&gt;category1&lt;/b&gt;&lt;/font&gt;" style="edgeLabel;html=1;align=center;verticalAlign=middle;resizable=0;points=[];fontFamily=Courier New;fontColor=#FFFFFF;labelBackgroundColor=none;" vertex="1" connectable="0" parent="eHjLzsZHzsq28qdxzHwp-26">
          <mxGeometry x="0.2736" y="1" relative="1" as="geometry">
            <mxPoint y="-14" as="offset" />
          </mxGeometry>
        </mxCell>
        <mxCell id="eHjLzsZHzsq28qdxzHwp-28" value="" style="endArrow=classic;html=1;exitX=1;exitY=0.75;exitDx=0;exitDy=0;strokeWidth=2;dashed=1;strokeColor=#696773;entryX=0;entryY=0.5;entryDx=0;entryDy=0;" edge="1" parent="1" source="eHjLzsZHzsq28qdxzHwp-20" target="eHjLzsZHzsq28qdxzHwp-25">
          <mxGeometry width="50" height="50" relative="1" as="geometry">
            <mxPoint x="850" y="2150" as="sourcePoint" />
            <mxPoint x="880" y="2105" as="targetPoint" />
            <Array as="points">
              <mxPoint x="840" y="2113" />
              <mxPoint x="840" y="2155" />
            </Array>
          </mxGeometry>
        </mxCell>
        <mxCell id="eHjLzsZHzsq28qdxzHwp-29" value="&lt;b style=&quot;color: rgb(105 , 103 , 115)&quot;&gt;category3&lt;/b&gt;" style="edgeLabel;html=1;align=center;verticalAlign=middle;resizable=0;points=[];fontFamily=Courier New;fontColor=#FFFFFF;labelBackgroundColor=none;" vertex="1" connectable="0" parent="eHjLzsZHzsq28qdxzHwp-28">
          <mxGeometry x="0.1604" y="3" relative="1" as="geometry">
            <mxPoint x="13" y="-12" as="offset" />
          </mxGeometry>
        </mxCell>
        <mxCell id="eHjLzsZHzsq28qdxzHwp-30" value="color1&lt;br&gt;#3d405b" style="rounded=1;whiteSpace=wrap;html=1;strokeColor=none;shadow=1;glass=0;comic=0;gradientColor=none;fontFamily=Courier New;fontColor=#FFFFFF;fillColor=#3d405b;" vertex="1" parent="1">
          <mxGeometry x="1110" y="1960" width="90" height="30" as="geometry" />
        </mxCell>
        <mxCell id="eHjLzsZHzsq28qdxzHwp-31" value="color2&lt;br&gt;#81b29a" style="rounded=1;whiteSpace=wrap;html=1;strokeColor=none;shadow=1;glass=0;comic=0;gradientColor=none;fontFamily=Courier New;fontColor=#FFFFFF;fillColor=#81b29a;" vertex="1" parent="1">
          <mxGeometry x="1110" y="2010" width="90" height="30" as="geometry" />
        </mxCell>
        <mxCell id="eHjLzsZHzsq28qdxzHwp-32" value="color3&lt;br&gt;#f2cc8f" style="rounded=1;whiteSpace=wrap;html=1;strokeColor=none;shadow=1;glass=0;comic=0;gradientColor=none;fontFamily=Courier New;fontColor=#FFFFFF;fillColor=#f2cc8f;" vertex="1" parent="1">
          <mxGeometry x="1110" y="2060" width="90" height="30" as="geometry" />
        </mxCell>
        <mxCell id="eHjLzsZHzsq28qdxzHwp-33" value="line&lt;br&gt;#696773" style="rounded=1;whiteSpace=wrap;html=1;fillColor=#696773;strokeColor=none;shadow=1;glass=0;comic=0;gradientColor=none;fontFamily=Courier New;fontColor=#FFFFFF;" vertex="1" parent="1">
          <mxGeometry x="1110" y="2160" width="90" height="30" as="geometry" />
        </mxCell>
        <mxCell id="eHjLzsZHzsq28qdxzHwp-34" value="color4&lt;br&gt;#e07a5f" style="rounded=1;whiteSpace=wrap;html=1;strokeColor=none;shadow=1;glass=0;comic=0;gradientColor=none;fontFamily=Courier New;fontColor=#FFFFFF;fillColor=#e07a5f;" vertex="1" parent="1">
          <mxGeometry x="1110" y="2110" width="90" height="30" as="geometry" />
        </mxCell>
        <mxCell id="eHjLzsZHzsq28qdxzHwp-35" value="background&lt;br&gt;#f4f1de" style="rounded=1;whiteSpace=wrap;html=1;strokeColor=none;shadow=1;glass=0;comic=0;gradientColor=none;fontFamily=Courier New;fontColor=#FFFFFF;fillColor=#f4f1de;" vertex="1" parent="1">
          <mxGeometry x="1110" y="2210" width="90" height="30" as="geometry" />
        </mxCell>
        <mxCell id="eHjLzsZHzsq28qdxzHwp-36" value="&lt;font face=&quot;Comic Sans MS&quot; style=&quot;font-size: 17px&quot;&gt;&lt;font style=&quot;font-size: 17px&quot;&gt;Title Font&lt;br&gt;Comic Sans MS&lt;/font&gt;&lt;br&gt;&lt;/font&gt;" style="text;html=1;strokeColor=none;fillColor=none;align=center;verticalAlign=middle;whiteSpace=wrap;rounded=0;fontColor=#3d405b;" vertex="1" parent="1">
          <mxGeometry x="840" y="1990" width="150" height="20" as="geometry" />
        </mxCell>
        <mxCell id="eHjLzsZHzsq28qdxzHwp-37" value="" style="rounded=1;whiteSpace=wrap;html=1;fillColor=#eff1f3;strokeColor=none;shadow=0;glass=0;comic=0;gradientColor=none;fontFamily=Courier New;fontColor=#FFFFFF;" vertex="1" parent="1">
          <mxGeometry x="710" y="2360" width="390" height="250" as="geometry" />
        </mxCell>
        <mxCell id="eHjLzsZHzsq28qdxzHwp-38" value="&lt;font color=&quot;#ffffff&quot; face=&quot;Courier New&quot;&gt;animals&lt;/font&gt;" style="rounded=1;whiteSpace=wrap;html=1;strokeColor=none;shadow=1;glass=0;comic=0;gradientColor=none;fillColor=#95E1D3;" vertex="1" parent="1">
          <mxGeometry x="720" y="2480" width="90" height="30" as="geometry" />
        </mxCell>
        <mxCell id="eHjLzsZHzsq28qdxzHwp-39" value="" style="endArrow=classic;html=1;exitX=1;exitY=0.5;exitDx=0;exitDy=0;strokeWidth=2;dashed=1;strokeColor=#696773;entryX=0;entryY=0.5;entryDx=0;entryDy=0;" edge="1" parent="1" source="eHjLzsZHzsq28qdxzHwp-38" target="eHjLzsZHzsq28qdxzHwp-42">
          <mxGeometry width="50" height="50" relative="1" as="geometry">
            <mxPoint x="860" y="2540" as="sourcePoint" />
            <mxPoint x="890" y="2495" as="targetPoint" />
          </mxGeometry>
        </mxCell>
        <mxCell id="eHjLzsZHzsq28qdxzHwp-40" value="&lt;b style=&quot;color: rgb(105 , 103 , 115)&quot;&gt;category2&lt;/b&gt;" style="edgeLabel;html=1;align=center;verticalAlign=middle;resizable=0;points=[];fontFamily=Courier New;fontColor=#FFFFFF;labelBackgroundColor=none;" vertex="1" connectable="0" parent="eHjLzsZHzsq28qdxzHwp-39">
          <mxGeometry x="0.0311" y="2" relative="1" as="geometry">
            <mxPoint x="7" y="-13" as="offset" />
          </mxGeometry>
        </mxCell>
        <mxCell id="eHjLzsZHzsq28qdxzHwp-41" value="cat" style="rounded=1;whiteSpace=wrap;html=1;strokeColor=none;shadow=1;glass=0;comic=0;gradientColor=none;fontFamily=Courier New;fontColor=#FFFFFF;fillColor=#f38181;" vertex="1" parent="1">
          <mxGeometry x="990" y="2430" width="90" height="30" as="geometry" />
        </mxCell>
        <mxCell id="eHjLzsZHzsq28qdxzHwp-42" value="dog" style="rounded=1;whiteSpace=wrap;html=1;strokeColor=none;shadow=1;glass=0;comic=0;gradientColor=none;fontFamily=Courier New;fontColor=#FFFFFF;fillColor=#f38181;" vertex="1" parent="1">
          <mxGeometry x="990" y="2480" width="90" height="30" as="geometry" />
        </mxCell>
        <mxCell id="eHjLzsZHzsq28qdxzHwp-43" value="pig" style="rounded=1;whiteSpace=wrap;html=1;strokeColor=none;shadow=1;glass=0;comic=0;gradientColor=none;fontFamily=Courier New;fontColor=#FFFFFF;fillColor=#f38181;" vertex="1" parent="1">
          <mxGeometry x="990" y="2530" width="90" height="30" as="geometry" />
        </mxCell>
        <mxCell id="eHjLzsZHzsq28qdxzHwp-44" value="" style="endArrow=classic;html=1;exitX=1;exitY=0.25;exitDx=0;exitDy=0;strokeWidth=2;dashed=1;strokeColor=#696773;entryX=0;entryY=0.5;entryDx=0;entryDy=0;" edge="1" parent="1" source="eHjLzsZHzsq28qdxzHwp-38" target="eHjLzsZHzsq28qdxzHwp-41">
          <mxGeometry width="50" height="50" relative="1" as="geometry">
            <mxPoint x="860" y="2540" as="sourcePoint" />
            <mxPoint x="890" y="2495" as="targetPoint" />
            <Array as="points">
              <mxPoint x="850" y="2488" />
              <mxPoint x="850" y="2445" />
            </Array>
          </mxGeometry>
        </mxCell>
        <mxCell id="eHjLzsZHzsq28qdxzHwp-45" value="&lt;font color=&quot;#696773&quot;&gt;&lt;b&gt;category1&lt;/b&gt;&lt;/font&gt;" style="edgeLabel;html=1;align=center;verticalAlign=middle;resizable=0;points=[];fontFamily=Courier New;fontColor=#FFFFFF;labelBackgroundColor=none;" vertex="1" connectable="0" parent="eHjLzsZHzsq28qdxzHwp-44">
          <mxGeometry x="0.2736" y="1" relative="1" as="geometry">
            <mxPoint y="-14" as="offset" />
          </mxGeometry>
        </mxCell>
        <mxCell id="eHjLzsZHzsq28qdxzHwp-46" value="" style="endArrow=classic;html=1;exitX=1;exitY=0.75;exitDx=0;exitDy=0;strokeWidth=2;dashed=1;strokeColor=#696773;entryX=0;entryY=0.5;entryDx=0;entryDy=0;" edge="1" parent="1" source="eHjLzsZHzsq28qdxzHwp-38" target="eHjLzsZHzsq28qdxzHwp-43">
          <mxGeometry width="50" height="50" relative="1" as="geometry">
            <mxPoint x="860" y="2540" as="sourcePoint" />
            <mxPoint x="890" y="2495" as="targetPoint" />
            <Array as="points">
              <mxPoint x="850" y="2503" />
              <mxPoint x="850" y="2545" />
            </Array>
          </mxGeometry>
        </mxCell>
        <mxCell id="eHjLzsZHzsq28qdxzHwp-47" value="&lt;b style=&quot;color: rgb(105 , 103 , 115)&quot;&gt;category3&lt;/b&gt;" style="edgeLabel;html=1;align=center;verticalAlign=middle;resizable=0;points=[];fontFamily=Courier New;fontColor=#FFFFFF;labelBackgroundColor=none;" vertex="1" connectable="0" parent="eHjLzsZHzsq28qdxzHwp-46">
          <mxGeometry x="0.1604" y="3" relative="1" as="geometry">
            <mxPoint x="13" y="-12" as="offset" />
          </mxGeometry>
        </mxCell>
        <mxCell id="eHjLzsZHzsq28qdxzHwp-48" value="color1&lt;br&gt;#95e1d3" style="rounded=1;whiteSpace=wrap;html=1;strokeColor=none;shadow=1;glass=0;comic=0;gradientColor=none;fontFamily=Courier New;fontColor=#FFFFFF;fillColor=#95e1d3;" vertex="1" parent="1">
          <mxGeometry x="1120" y="2350" width="90" height="30" as="geometry" />
        </mxCell>
        <mxCell id="eHjLzsZHzsq28qdxzHwp-49" value="color2&lt;br&gt;#eaffd0" style="rounded=1;whiteSpace=wrap;html=1;strokeColor=none;shadow=1;glass=0;comic=0;gradientColor=none;fontFamily=Courier New;fontColor=#FFFFFF;fillColor=#eaffd0;" vertex="1" parent="1">
          <mxGeometry x="1120" y="2400" width="90" height="30" as="geometry" />
        </mxCell>
        <mxCell id="eHjLzsZHzsq28qdxzHwp-50" value="color3&lt;br&gt;#fce38a" style="rounded=1;whiteSpace=wrap;html=1;strokeColor=none;shadow=1;glass=0;comic=0;gradientColor=none;fontFamily=Courier New;fontColor=#FFFFFF;fillColor=#fce38a;" vertex="1" parent="1">
          <mxGeometry x="1120" y="2450" width="90" height="30" as="geometry" />
        </mxCell>
        <mxCell id="eHjLzsZHzsq28qdxzHwp-51" value="line&lt;br&gt;#696773" style="rounded=1;whiteSpace=wrap;html=1;fillColor=#696773;strokeColor=none;shadow=1;glass=0;comic=0;gradientColor=none;fontFamily=Courier New;fontColor=#FFFFFF;" vertex="1" parent="1">
          <mxGeometry x="1120" y="2550" width="90" height="30" as="geometry" />
        </mxCell>
        <mxCell id="eHjLzsZHzsq28qdxzHwp-52" value="color4&lt;br&gt;#f38181" style="rounded=1;whiteSpace=wrap;html=1;strokeColor=none;shadow=1;glass=0;comic=0;gradientColor=none;fontFamily=Courier New;fontColor=#FFFFFF;fillColor=#f38181;" vertex="1" parent="1">
          <mxGeometry x="1120" y="2500" width="90" height="30" as="geometry" />
        </mxCell>
        <mxCell id="eHjLzsZHzsq28qdxzHwp-53" value="background&lt;br&gt;#EFF1F3" style="rounded=1;whiteSpace=wrap;html=1;fillColor=#eff1f3;strokeColor=none;shadow=1;glass=0;comic=0;gradientColor=none;fontFamily=Courier New;fontColor=#FFFFFF;" vertex="1" parent="1">
          <mxGeometry x="1120" y="2600" width="90" height="30" as="geometry" />
        </mxCell>
        <mxCell id="eHjLzsZHzsq28qdxzHwp-54" value="&lt;font face=&quot;Comic Sans MS&quot; style=&quot;font-size: 17px&quot;&gt;&lt;font color=&quot;#696773&quot; style=&quot;font-size: 17px&quot;&gt;Title Font&lt;br&gt;Comic Sans MS&lt;/font&gt;&lt;br&gt;&lt;/font&gt;" style="text;html=1;strokeColor=none;fillColor=none;align=center;verticalAlign=middle;whiteSpace=wrap;rounded=0;" vertex="1" parent="1">
          <mxGeometry x="850" y="2380" width="150" height="20" as="geometry" />
        </mxCell>
        <mxCell id="eHjLzsZHzsq28qdxzHwp-55" value="&lt;font face=&quot;Courier New&quot;&gt;animals&lt;/font&gt;" style="rounded=1;whiteSpace=wrap;html=1;strokeColor=none;shadow=1;glass=0;comic=0;gradientColor=none;fillColor=#95E1D3;fontColor=default;" vertex="1" parent="1">
          <mxGeometry x="730" y="2490" width="90" height="30" as="geometry" />
        </mxCell>
      </root>
    </mxGraphModel>
  </diagram>
  <diagram id="yqIicmLOVPXOKiXKTYcQ" name="TRP扩容">
    <mxGraphModel dx="-4" dy="-707" grid="1" gridSize="10" guides="1" tooltips="1" connect="1" arrows="1" fold="1" page="1" pageScale="1" pageWidth="827" pageHeight="1169" math="0" shadow="0">
      <root>
        <mxCell id="QjkoPsIQRl-Pro7B5hFz-0" />
        <mxCell id="QjkoPsIQRl-Pro7B5hFz-1" parent="QjkoPsIQRl-Pro7B5hFz-0" />
        <mxCell id="84n5sTx252W-ymqBMe2K-2" value="" style="edgeStyle=orthogonalEdgeStyle;rounded=0;orthogonalLoop=1;jettySize=auto;html=1;fontFamily=Times New Roman;fontSize=12;" edge="1" parent="QjkoPsIQRl-Pro7B5hFz-1" source="84n5sTx252W-ymqBMe2K-0">
          <mxGeometry relative="1" as="geometry">
            <mxPoint x="1090.0000000000002" y="1650" as="targetPoint" />
          </mxGeometry>
        </mxCell>
        <mxCell id="84n5sTx252W-ymqBMe2K-0" value="通过Etcd获取" style="rounded=1;whiteSpace=wrap;html=1;fillColor=#77aac2;strokeColor=none;shadow=1;glass=0;comic=0;gradientColor=none;fontFamily=Courier New;fontColor=#FFFFFF;" vertex="1" parent="QjkoPsIQRl-Pro7B5hFz-1">
          <mxGeometry x="980" y="1580" width="220" height="40" as="geometry" />
        </mxCell>
        <mxCell id="84n5sTx252W-ymqBMe2K-3" value="通过Etcd获取" style="rounded=1;whiteSpace=wrap;html=1;fillColor=#77aac2;strokeColor=none;shadow=1;glass=0;comic=0;gradientColor=none;fontFamily=Courier New;fontColor=#FFFFFF;" vertex="1" parent="QjkoPsIQRl-Pro7B5hFz-1">
          <mxGeometry x="980" y="1650" width="220" height="40" as="geometry" />
        </mxCell>
      </root>
    </mxGraphModel>
  </diagram>
</mxfile>
